<?xml version="1.0" standalone="no"?>
<!DOCTYPE svg PUBLIC "-//W3C//DTD SVG 20010904//EN"
 "http://www.w3.org/TR/2001/REC-SVG-20010904/DTD/svg10.dtd">
<svg version="1.0" xmlns="http://www.w3.org/2000/svg"
 width="1447.000000pt" height="2048.000000pt" viewBox="0 0 1447.000000 2048.000000"
 preserveAspectRatio="xMidYMid meet">
<metadata>
Created by potrace 1.16, written by Peter Selinger 2001-2019
</metadata>
<g transform="translate(0.000000,2048.000000) scale(0.100000,-0.100000)"
fill="#000000" stroke="none">
<path d="M6840 20085 c-739 -65 -1476 -322 -2115 -738 -38 -25 -74 -50 -80
-54 -5 -5 -26 -19 -45 -33 -89 -61 -244 -181 -340 -263 -209 -177 -389 -364
-642 -665 -85 -102 -267 -372 -372 -550 -56 -96 -142 -262 -206 -397 -85 -180
-201 -502 -255 -710 -13 -49 -31 -117 -40 -150 -8 -33 -20 -85 -25 -115 -5
-30 -20 -116 -34 -191 -14 -75 -28 -174 -31 -220 -3 -46 -8 -95 -10 -109 -3
-14 -9 -122 -15 -241 -20 -445 30 -924 142 -1349 81 -307 195 -613 329 -883
l59 -119 0 -1631 0 -1632 -49 -52 c-41 -45 -69 -77 -141 -164 -43 -51 -170
-232 -224 -317 -252 -396 -462 -905 -598 -1442 -43 -170 -114 -523 -123 -610
-3 -30 -12 -102 -20 -160 -41 -301 -55 -516 -55 -872 0 -172 6 -360 15 -470
21 -249 69 -618 100 -761 14 -65 27 -133 29 -150 14 -106 127 -512 196 -706
237 -663 508 -1124 894 -1519 l130 -133 64 63 c56 55 194 204 271 293 121 140
301 422 434 683 225 440 441 1131 512 1638 8 60 24 172 35 249 22 157 50 617
50 830 0 192 -26 656 -44 790 -33 242 -58 397 -87 535 -16 80 -32 156 -35 170
-44 222 -191 681 -300 937 -179 422 -408 792 -681 1099 l-63 72 0 1366 c0 849
4 1366 9 1366 6 0 18 -13 28 -30 9 -16 21 -30 24 -30 4 0 10 -9 14 -19 3 -10
16 -30 28 -42 13 -13 47 -55 77 -94 393 -505 1007 -992 1609 -1277 227 -107
644 -266 751 -285 14 -2 63 -15 110 -28 47 -13 96 -26 110 -29 14 -2 84 -16
155 -30 147 -29 235 -43 315 -51 188 -18 282 -25 338 -25 l62 0 0 -1599 0
-1598 -27 -29 c-393 -419 -730 -1055 -928 -1749 -40 -138 -113 -439 -120 -492
-3 -17 -16 -89 -30 -160 -14 -70 -30 -168 -35 -218 -5 -49 -16 -146 -24 -215
-33 -278 -41 -426 -40 -745 0 -316 7 -441 39 -730 8 -71 17 -154 20 -184 4
-29 17 -115 31 -190 14 -75 31 -172 39 -216 7 -44 25 -127 40 -185 15 -58 29
-116 32 -130 23 -127 167 -560 260 -780 196 -468 457 -873 775 -1204 l124
-130 125 130 c111 114 188 197 212 229 4 5 21 26 37 45 36 41 220 315 279 415
125 209 313 635 402 908 79 244 193 704 214 862 4 28 18 118 31 200 78 481 84
1364 14 1840 -45 306 -49 328 -109 617 -59 283 -199 710 -328 1003 -91 205
-221 453 -298 567 -108 162 -174 256 -203 292 -18 23 -47 59 -65 81 -18 22
-60 70 -94 107 l-63 67 0 1590 c0 1440 1 1589 16 1595 9 3 43 6 77 6 34 0 147
9 251 20 784 82 1553 375 2191 834 106 76 259 193 287 218 7 7 56 51 108 97
213 188 446 442 619 671 l86 115 3 -1374 2 -1373 -52 -57 c-29 -31 -82 -93
-117 -136 -35 -44 -68 -81 -72 -83 -5 -2 -9 -8 -9 -13 0 -5 -26 -44 -57 -87
-128 -172 -342 -559 -438 -792 -81 -198 -171 -456 -221 -635 -54 -195 -120
-476 -133 -565 -5 -36 -19 -119 -30 -185 -20 -113 -34 -236 -63 -535 -17 -169
-17 -864 0 -1035 18 -180 32 -322 38 -375 9 -86 75 -455 98 -550 13 -52 27
-113 31 -135 6 -36 16 -74 70 -260 107 -371 275 -773 453 -1082 163 -284 317
-488 536 -711 l120 -122 89 87 c73 72 191 203 287 319 44 53 187 265 251 372
79 132 232 436 279 557 70 176 103 265 142 380 322 960 405 2154 222 3210
-100 580 -258 1071 -505 1568 -142 287 -420 689 -566 821 l-33 30 0 1641 0
1641 49 100 c213 432 346 843 420 1296 45 271 51 337 57 633 8 317 -6 576 -40
785 -13 80 -27 168 -31 195 -12 96 -94 412 -153 590 -93 281 -149 410 -327
765 -81 160 -364 582 -484 722 -11 12 -29 34 -41 48 -134 162 -348 379 -520
528 -492 424 -1034 729 -1640 921 -69 22 -143 44 -165 49 -22 5 -74 19 -116
30 -125 35 -443 92 -604 108 -207 22 -732 27 -935 9z m564 -358 c372 -335 686
-678 912 -993 109 -153 110 -136 -9 -174 -298 -96 -560 -226 -750 -371 -23
-18 -99 -89 -168 -159 l-127 -127 -108 112 c-150 154 -241 226 -411 324 -128
73 -282 140 -463 201 -85 28 -157 53 -159 55 -3 4 92 146 114 171 5 7 19 24
30 40 33 46 178 227 200 250 11 11 33 36 48 55 91 112 375 399 586 593 l93 86
72 0 71 0 69 -63z m-531 -19 c-195 -186 -334 -329 -465 -478 -60 -68 -68 -78
-133 -155 -58 -69 -197 -256 -263 -353 -56 -83 -58 -84 -92 -79 -19 3 -80 13
-135 22 -403 64 -567 77 -1017 77 -223 0 -308 4 -307 12 0 6 26 30 57 54 31
23 95 72 142 108 97 75 343 238 455 302 272 157 620 304 935 397 281 82 644
149 837 154 l51 1 -65 -62z m987 41 c152 -21 430 -81 600 -130 361 -105 612
-213 1005 -434 164 -92 592 -401 604 -436 3 -9 -33 -11 -155 -6 -176 6 -633
-7 -789 -24 -83 -8 -371 -50 -517 -75 -34 -6 -38 -4 -65 35 -115 170 -312 430
-423 556 -19 22 -143 149 -275 283 -132 133 -242 245 -245 249 -6 7 159 -4
260 -18z m2130 -1159 c129 -6 242 -11 250 -13 25 -5 44 -19 88 -68 l43 -47 9
-297 c11 -327 1 -690 -24 -885 -24 -177 -58 -394 -65 -402 -4 -4 -74 26 -156
68 -83 41 -179 85 -215 99 -36 13 -83 31 -105 40 -68 29 -245 74 -360 91 -74
11 -169 17 -289 16 l-179 -1 5 111 c13 269 -41 560 -157 839 -35 86 -118 254
-150 307 -30 48 -34 45 75 66 236 45 455 65 960 84 19 1 141 -3 270 -8z
m-4610 -29 c217 -21 275 -29 408 -57 72 -16 80 -21 63 -40 -22 -22 -155 -303
-195 -413 -92 -247 -128 -449 -125 -718 l1 -142 -214 -5 c-117 -2 -229 -7
-248 -10 -108 -20 -156 -32 -255 -61 -162 -48 -361 -132 -490 -206 -44 -26
-83 -43 -87 -40 -16 14 -57 303 -73 501 -22 289 -30 699 -16 920 l11 185 48
47 47 48 130 9 c212 15 748 6 995 -18z m769 -143 c284 -84 508 -190 702 -333
75 -55 309 -287 309 -307 0 -4 -29 -50 -64 -101 -165 -239 -265 -451 -325
-692 -16 -66 -33 -144 -37 -172 -3 -29 -10 -53 -14 -53 -5 0 -44 24 -87 54
-231 158 -485 263 -788 325 -111 23 -140 32 -146 47 -14 34 -9 328 6 440 30
217 137 509 272 744 11 19 25 45 32 58 6 12 17 22 23 22 6 0 58 -14 117 -32z
m2378 -15 c92 -152 198 -394 243 -556 46 -165 59 -259 61 -437 3 -257 7 -237
-48 -245 -87 -12 -326 -73 -418 -105 -179 -63 -378 -168 -501 -261 -36 -28
-67 -49 -68 -47 -1 1 -13 59 -25 128 -53 286 -180 570 -381 852 l-33 47 65 68
c36 37 87 91 114 119 138 144 386 292 654 391 90 34 272 90 297 92 6 1 24 -20
40 -46z m2181 -328 c132 -175 229 -323 323 -490 74 -132 217 -430 249 -520 10
-27 28 -75 40 -105 74 -193 153 -484 195 -715 29 -158 66 -435 60 -446 -3 -3
-107 96 -232 220 -201 200 -279 273 -439 409 -62 53 -332 254 -407 302 -55 36
-67 48 -63 65 68 244 122 845 114 1259 l-5 230 30 -35 c16 -19 77 -97 135
-174z m-6726 -35 c-4 -248 10 -596 33 -775 22 -170 55 -386 65 -425 17 -60 13
-66 -62 -117 -260 -172 -578 -440 -865 -731 -188 -189 -193 -194 -193 -161 0
148 62 509 130 759 75 275 127 417 267 730 23 52 159 302 205 380 116 192 393
570 417 570 4 0 5 -104 3 -230z m3304 -422 c44 -51 122 -181 185 -308 98 -197
156 -394 177 -599 l8 -84 -60 -71 c-34 -39 -63 -73 -66 -76 -3 -3 -34 -47 -68
-97 -68 -100 -120 -199 -161 -305 -14 -36 -30 -67 -36 -67 -5 -1 -28 43 -51
96 -22 54 -59 131 -82 172 -46 81 -159 234 -217 296 l-38 39 7 81 c16 208 78
423 182 630 62 122 180 315 194 315 4 0 15 -10 26 -22z m-1796 -584 l65 -6 28
-147 c61 -319 183 -599 370 -853 11 -15 18 -30 15 -33 -3 -3 -46 -12 -97 -20
-215 -35 -467 -130 -686 -259 -38 -22 -79 -49 -89 -58 -11 -10 -23 -18 -26
-18 -4 0 -31 -18 -60 -40 -29 -22 -57 -40 -61 -40 -16 0 -269 259 -317 324
-129 177 -251 440 -318 686 -14 52 -27 102 -30 112 -5 18 51 55 211 136 231
118 449 186 680 215 52 7 248 7 315 1z m3919 -10 c198 -29 383 -87 581 -181
89 -43 213 -109 258 -139 10 -6 -73 -276 -120 -389 -112 -269 -222 -437 -401
-615 -71 -72 -136 -130 -144 -130 -12 0 -126 72 -143 90 -3 3 -49 32 -102 63
-130 77 -286 150 -405 188 -54 17 -108 35 -120 39 -12 5 -74 17 -137 27 -64
10 -116 22 -116 26 0 5 11 22 25 38 60 72 175 276 230 409 51 124 119 348 130
430 4 25 11 67 16 94 5 27 9 50 9 52 0 5 95 10 219 12 62 1 161 -5 220 -14z
m-3549 -38 c309 -72 498 -156 754 -336 11 -8 26 -20 32 -26 7 -6 25 -22 41
-35 29 -25 30 -29 37 -140 11 -167 53 -339 127 -511 21 -50 37 -93 35 -95 -2
-2 -39 12 -84 31 -93 40 -257 94 -304 100 -18 2 -62 9 -98 14 -36 6 -104 13
-152 17 l-87 7 -54 66 c-123 151 -227 344 -297 551 -36 107 -90 326 -90 365 0
21 16 20 140 -8z m2921 -138 c-35 -157 -88 -312 -154 -449 -52 -108 -164 -282
-223 -346 l-39 -42 -117 -11 c-202 -18 -327 -48 -498 -120 -41 -17 -83 -34
-92 -37 -19 -6 -24 7 -9 23 5 5 27 56 50 114 50 129 98 342 107 475 7 113 10
117 104 189 219 167 458 273 765 340 94 20 129 23 133 10 1 -6 -11 -72 -27
-146z m-4616 -330 c64 -210 172 -456 263 -600 81 -129 132 -190 263 -321 71
-70 129 -131 129 -135 0 -4 -38 -42 -84 -85 -66 -60 -196 -205 -244 -272 -131
-183 -248 -432 -328 -697 -14 -49 -30 -88 -34 -88 -10 0 -198 133 -276 196
-34 27 -79 63 -100 79 -62 48 -156 131 -318 281 -111 102 -291 288 -426 439
-30 33 -57 62 -62 63 -4 2 -8 38 -8 80 l0 77 76 85 c291 325 726 724 974 893
14 9 50 35 80 56 30 22 58 40 61 41 3 0 18 -42 34 -92z m6295 48 c279 -185
691 -554 1030 -923 l94 -103 0 -80 c0 -73 -2 -83 -24 -104 -14 -12 -63 -65
-110 -116 -226 -249 -476 -484 -740 -694 -63 -50 -125 -98 -136 -106 -181
-126 -194 -132 -194 -96 0 23 -100 318 -131 386 -115 252 -237 429 -424 613
l-122 120 126 126 c70 69 138 141 151 159 14 19 34 46 46 60 38 48 124 192
169 281 68 136 123 276 170 434 18 62 29 85 38 80 7 -4 32 -21 57 -37z m-3534
-241 c51 -76 131 -220 148 -270 48 -131 58 -165 70 -225 32 -155 33 -154 -29
-60 -100 154 -189 367 -209 500 -4 25 -10 59 -13 75 -6 35 -3 33 33 -20z m698
-73 c-12 -54 -35 -131 -49 -172 -26 -73 -111 -250 -125 -260 -3 -3 -15 -21
-26 -40 -21 -37 -64 -90 -64 -77 0 4 12 60 26 125 25 111 66 226 121 337 40
80 126 206 134 194 3 -6 -4 -54 -17 -107z m-1465 -446 c143 -132 317 -239 509
-315 41 -16 70 -31 65 -33 -4 -3 -26 -11 -48 -18 -64 -20 -235 -105 -292 -144
-29 -20 -57 -36 -63 -36 -5 0 -10 -3 -10 -7 0 -5 -17 -19 -38 -33 -20 -13 -70
-54 -110 -89 l-73 -65 -97 12 c-206 24 -437 96 -622 194 -118 62 -290 176
-290 191 0 7 24 27 53 46 309 204 581 309 881 341 39 4 72 8 74 9 1 0 29 -23
61 -53z m2506 14 c138 -28 157 -33 270 -74 168 -62 505 -250 505 -282 0 -17
-164 -125 -307 -202 -148 -79 -418 -160 -606 -181 l-98 -11 -97 83 c-145 124
-295 215 -471 282 l-73 29 86 33 c97 38 251 117 321 166 66 47 164 128 195
162 24 26 28 27 100 21 41 -3 120 -15 175 -26z m-2175 -4 c166 -38 321 -105
460 -200 62 -42 71 -51 53 -54 -26 -4 -151 27 -263 64 -71 24 -249 107 -260
122 -3 4 -16 13 -30 20 -40 21 -97 71 -80 72 8 0 62 -11 120 -24z m1675 15
c-11 -19 -141 -100 -230 -144 -125 -62 -425 -151 -425 -126 0 4 19 21 43 37
152 103 323 178 496 217 126 28 124 27 116 16z m-1152 -467 c17 -17 -214 -151
-353 -204 -60 -23 -292 -81 -298 -75 -9 9 14 28 106 83 120 72 266 133 414
172 128 33 123 32 131 24z m577 -9 c96 -18 259 -74 363 -127 70 -35 192 -112
202 -127 9 -15 -3 -14 -123 13 -102 24 -232 70 -324 117 -79 40 -198 121 -192
130 3 6 13 8 22 5 10 -2 33 -7 52 -11z m-2512 -79 c255 -168 525 -282 776
-326 60 -11 111 -21 113 -24 6 -6 -13 -40 -32 -59 -8 -8 -41 -57 -73 -108
-131 -208 -225 -450 -278 -718 -34 -167 -11 -153 -248 -153 -273 0 -520 61
-799 197 -109 53 -238 119 -256 132 -7 5 21 114 60 228 74 222 168 416 275
571 42 60 313 344 329 344 3 0 63 -38 133 -84z m4650 -48 c73 -73 140 -144
149 -158 9 -14 19 -27 22 -30 36 -32 156 -248 213 -385 38 -89 124 -349 131
-396 5 -36 5 -36 -71 -80 -304 -172 -559 -259 -852 -289 -115 -12 -326 -2
-344 16 -7 7 -16 37 -20 66 -35 271 -166 609 -330 853 -37 54 -65 100 -62 102
2 2 44 11 92 18 279 46 625 197 859 376 28 21 57 39 65 39 9 0 75 -60 148
-132z m-2562 -25 c-3 -10 -10 -49 -17 -88 -13 -77 -63 -224 -110 -325 -35 -74
-138 -235 -145 -227 -9 8 16 140 42 222 29 91 125 292 181 378 37 56 60 74 49
40z m220 3 c8 -8 14 -17 14 -20 0 -3 13 -24 29 -48 89 -131 191 -394 205 -523
l7 -60 -21 25 c-11 14 -24 30 -28 35 -82 103 -184 349 -213 510 -5 33 -12 68
-15 78 -6 21 2 22 22 3z m-4254 -251 c94 -97 223 -222 287 -278 64 -56 125
-111 136 -122 11 -11 36 -32 55 -46 19 -15 46 -37 60 -49 39 -35 247 -189 338
-250 45 -30 82 -62 82 -70 0 -8 -5 -33 -10 -55 -15 -60 -68 -434 -80 -565 -7
-63 -13 -284 -16 -490 -2 -206 -4 -376 -4 -378 -1 -8 -165 196 -212 263 -19
28 -55 79 -80 115 -197 282 -410 713 -528 1069 -88 263 -172 651 -193 884 -7
81 -11 147 -9 147 2 0 80 -79 174 -175z m8440 133 c-12 -171 -57 -435 -114
-668 -147 -609 -452 -1217 -857 -1710 -25 -30 -48 -58 -51 -62 -3 -4 -5 147
-5 335 -1 194 -6 398 -13 472 -21 211 -61 524 -76 584 -30 119 -32 106 32 149
286 190 587 444 882 743 107 109 197 198 200 198 3 1 4 -18 2 -41z m-4682 -4
c0 -3 -12 -31 -26 -62 -75 -164 -123 -354 -133 -525 l-7 -129 -35 -31 c-135
-125 -375 -260 -578 -327 -120 -39 -271 -77 -340 -85 l-54 -6 7 43 c14 87 76
316 109 404 69 179 161 343 271 480 l57 71 87 7 c230 18 434 69 588 146 41 20
54 24 54 14z m818 -23 c140 -70 366 -126 552 -137 l95 -6 43 -46 c159 -173
312 -493 377 -789 14 -65 28 -128 31 -141 5 -23 3 -23 -43 -17 -232 31 -538
143 -734 270 -41 26 -106 73 -146 104 l-71 56 -6 85 c-15 200 -57 377 -130
550 -36 84 -41 100 -31 100 3 0 31 -13 63 -29z m-345 -351 c43 -83 111 -195
127 -210 3 -3 18 -23 35 -45 16 -22 51 -64 79 -92 l49 -53 -7 -97 c-15 -202
-77 -406 -192 -633 -68 -136 -171 -290 -192 -290 -17 0 -131 178 -194 304
-108 214 -168 421 -192 656 -5 55 -5 55 41 103 63 66 203 254 203 273 0 3 9
18 19 33 19 26 100 209 116 261 7 21 11 16 33 -45 14 -39 48 -113 75 -165z
m-618 -610 c14 -91 65 -278 105 -383 62 -165 144 -320 252 -475 32 -45 58 -89
58 -96 0 -15 -228 -247 -285 -291 -149 -114 -339 -214 -547 -289 -112 -40
-270 -86 -296 -86 -9 0 -23 24 -113 197 -172 326 -255 710 -223 1020 l7 60 51
6 c86 9 305 65 421 108 192 71 377 169 504 266 50 38 54 36 66 -37z m1095 46
c20 -25 195 -135 283 -178 116 -57 295 -125 407 -154 121 -32 282 -64 291 -58
12 7 21 -221 14 -333 -16 -250 -95 -507 -245 -793 -39 -74 -75 -139 -80 -144
-13 -13 -98 7 -245 57 -228 77 -447 187 -606 307 -72 54 -289 274 -289 293 0
6 33 61 74 122 167 248 276 501 327 760 11 61 23 116 25 123 5 16 29 15 44 -2z
m-3235 -263 c139 -58 333 -116 455 -135 49 -7 168 -13 282 -13 l196 0 4 -220
c6 -268 28 -389 118 -640 11 -33 28 -76 37 -95 50 -111 110 -232 139 -281 19
-31 34 -59 34 -62 0 -15 -279 -58 -535 -83 -201 -20 -815 -26 -985 -10 l-95 9
-43 47 c-23 26 -44 57 -47 68 -12 65 -26 513 -20 667 13 368 33 581 76 812
l21 113 122 -63 c66 -35 175 -86 241 -114z m5700 130 c4 -27 13 -88 22 -138
49 -297 71 -743 57 -1157 l-9 -258 -55 -54 -55 -55 -255 -10 c-256 -10 -571
-2 -795 18 -60 6 -139 13 -175 16 -53 5 -198 27 -342 52 -34 6 -34 11 -3 67
139 250 226 479 277 736 19 96 23 147 23 311 l0 196 180 0 c99 -1 223 5 275
12 107 15 287 64 430 117 91 34 364 166 385 185 21 20 34 7 40 -38z m-2924
-1109 c123 -125 205 -194 308 -262 79 -50 253 -141 354 -183 83 -35 300 -109
320 -109 7 0 21 -6 30 -12 16 -12 10 -24 -62 -125 -225 -317 -580 -704 -939
-1025 l-54 -48 -75 0 -76 0 -96 87 c-195 177 -473 463 -650 668 -78 91 -285
367 -311 415 -13 24 -2 39 30 40 22 0 235 73 331 113 124 52 260 125 384 207
84 55 142 106 245 210 74 76 138 138 141 139 3 1 57 -51 120 -115z m-1386
-676 c31 -49 179 -253 226 -313 23 -29 97 -116 139 -165 26 -30 65 -76 86
-102 21 -25 141 -148 265 -272 125 -124 224 -226 220 -226 -3 0 -76 7 -161 16
-214 22 -508 81 -725 146 -110 33 -339 110 -350 118 -5 4 -21 11 -35 15 -38
12 -278 120 -362 164 -284 148 -572 337 -776 508 -34 29 -62 56 -62 59 0 3
125 5 278 5 313 -1 676 19 862 48 186 30 314 52 319 57 16 15 41 -5 76 -58z
m2836 17 c274 -44 596 -66 954 -65 149 1 276 1 283 0 8 0 -31 -35 -85 -78
-484 -386 -979 -641 -1574 -811 -124 -36 -476 -107 -569 -116 -36 -3 -105 -10
-153 -16 -49 -6 -90 -9 -92 -7 -7 6 7 20 119 123 107 99 372 374 452 470 23
28 66 79 96 115 68 82 149 191 223 300 91 134 88 131 110 125 11 -3 117 -21
236 -40z m-5671 -3128 l0 -422 -350 -350 c-192 -192 -350 -347 -350 -343 0 20
36 157 66 253 115 361 223 620 373 895 68 124 241 390 253 390 5 0 8 -190 8
-423z m414 296 c125 -190 259 -434 328 -598 88 -208 134 -331 178 -470 30 -95
90 -314 90 -328 0 -7 -157 146 -350 338 l-350 350 0 417 c0 264 4 418 10 418
5 0 47 -57 94 -127z m7134 -1060 c-189 -189 -347 -343 -351 -343 -5 0 -6 8 -3
18 140 500 287 864 474 1182 28 47 65 110 83 140 17 30 35 57 38 60 3 3 18 23
33 45 68 104 63 133 66 -338 l2 -422 -342 -342z m777 1032 c52 -79 95 -146 95
-150 0 -4 8 -19 19 -33 47 -67 192 -371 264 -552 90 -229 211 -614 199 -634
-2 -4 -159 146 -348 335 l-344 344 0 423 c0 291 3 421 10 417 6 -4 53 -71 105
-150z m-8325 -1587 l0 -442 -437 -438 c-241 -241 -441 -438 -445 -438 -13 0
-9 316 7 485 8 88 24 229 36 314 l21 155 403 403 c221 222 405 403 409 403 3
0 6 -199 6 -442z m728 39 l403 -403 20 -130 c25 -173 67 -809 53 -823 -3 -3
-205 195 -449 439 l-445 445 0 437 c0 241 3 438 8 438 4 0 188 -181 410 -403z
m6725 -919 c-241 -241 -441 -438 -445 -438 -23 0 9 523 53 860 l11 85 406 408
407 407 3 -442 2 -443 -437 -437z m1286 799 l286 -288 11 -67 c37 -216 80
-882 57 -882 -5 0 -205 197 -445 437 l-438 438 0 444 0 445 121 -120 c67 -65
250 -249 408 -407z m-4789 -997 l0 -419 -344 -346 c-189 -190 -347 -345 -350
-345 -10 0 9 86 44 195 11 33 33 105 51 160 33 107 90 264 119 330 10 22 32
74 50 115 88 202 229 460 333 610 21 30 48 70 60 87 12 18 25 33 30 33 4 0 7
-189 7 -420z m505 147 c78 -128 213 -390 253 -492 11 -27 39 -97 62 -155 68
-172 190 -558 190 -603 0 -8 -157 143 -350 336 l-350 350 0 412 c0 226 3 415
7 418 9 9 91 -107 188 -266z m4630 -907 c-25 -312 -81 -710 -99 -710 -6 0
-183 172 -394 383 l-382 383 0 450 0 449 440 -440 441 -440 -6 -75z m-9085
502 l0 -439 -391 -391 c-215 -216 -392 -392 -393 -392 -6 0 -25 112 -41 235
-35 263 -45 354 -51 453 l-7 104 434 434 c239 239 437 434 441 434 5 0 8 -197
8 -438z m759 4 l434 -434 -7 -103 c-13 -194 -17 -244 -31 -339 -8 -52 -21
-147 -31 -210 -9 -63 -18 -122 -21 -129 -2 -10 -147 128 -398 379 l-395 395 0
437 c0 241 3 438 8 438 4 0 202 -195 441 -434z m7131 -9 l0 -442 -389 -389
-389 -388 -11 63 c-6 35 -18 101 -26 147 -8 45 -19 129 -25 185 -5 56 -16 170
-25 252 l-14 150 432 433 c237 237 435 432 439 432 5 0 8 -199 8 -443z m-3940
-1059 l0 -442 -437 -438 c-241 -241 -444 -438 -450 -438 -16 0 -16 34 -3 270
9 173 42 508 60 625 l10 60 402 402 c222 222 406 403 410 403 5 0 8 -199 8
-442z m728 39 l403 -403 14 -89 c9 -50 19 -148 25 -220 5 -71 14 -188 19 -260
6 -71 12 -190 16 -264 l5 -134 -41 38 c-23 20 -225 222 -450 447 l-409 410 0
439 c0 241 3 439 8 439 4 0 188 -181 410 -403z m-4922 -996 l-245 -245 -12 30
c-57 143 -151 428 -184 556 l-22 87 351 352 351 352 3 -444 2 -444 -244 -244z
m1215 263 c-76 -259 -159 -494 -176 -494 -6 0 -117 107 -248 238 l-237 239 0
435 c0 239 3 438 7 442 4 3 163 -150 355 -342 l348 -348 -49 -170z m6679 -265
l-239 -242 -12 29 c-75 191 -120 321 -175 512 l-38 133 350 350 349 349 3
-444 2 -445 -240 -242z m1254 406 c-28 -139 -196 -634 -215 -635 -4 0 -113
107 -243 237 l-236 236 0 446 0 446 350 -350 c334 -333 350 -351 344 -380z
m-4954 -779 l0 -444 -390 -388 c-215 -214 -392 -390 -394 -392 -5 -4 -44 213
-51 283 -3 33 -13 116 -21 185 -8 69 -17 169 -21 223 l-6 99 439 439 c241 241
440 439 441 439 2 0 3 -200 3 -444z m759 0 l435 -435 -12 -148 c-7 -81 -15
-177 -18 -213 -3 -36 -18 -145 -35 -243 -16 -98 -29 -182 -29 -185 0 -4 -178
171 -395 388 l-395 395 0 437 c0 241 3 438 8 438 4 0 202 -195 441 -434z
m-4709 -286 c0 -247 -3 -450 -7 -449 -31 2 -333 502 -333 550 0 13 323 349
335 349 3 0 5 -202 5 -450z m625 37 c-102 -198 -289 -492 -306 -481 -10 6 -12
877 -2 887 3 4 82 -70 176 -163 l169 -170 -37 -73z m7265 -38 c0 -277 -4 -448
-9 -444 -40 24 -331 509 -331 551 0 8 330 344 337 344 2 0 3 -203 3 -451z
m617 18 c-26 -50 -61 -117 -79 -147 -43 -76 -197 -308 -208 -315 -6 -4 -10
162 -10 447 l0 453 172 -173 173 -172 -48 -93z m-4557 -1070 l0 -442 -245
-245 -244 -244 -12 30 c-84 216 -199 575 -201 627 -1 25 47 77 343 373 189
189 347 344 352 344 4 0 7 -199 7 -443z m672 95 l347 -347 -49 -170 c-27 -93
-67 -222 -90 -285 -23 -63 -49 -136 -58 -162 -10 -26 -21 -48 -26 -48 -4 0
-116 108 -247 239 l-239 239 0 441 c0 243 3 441 8 441 4 0 163 -156 354 -348z
m-672 -1443 c0 -376 -2 -450 -13 -440 -43 35 -261 390 -318 515 l-17 40 166
168 c92 92 170 168 175 168 4 0 7 -203 7 -451z m494 282 l168 -168 -52 -99
c-98 -184 -263 -443 -288 -452 -9 -3 -12 101 -12 442 0 245 3 446 8 446 4 0
83 -76 176 -169z"/>
</g>
</svg>
